<mxfile host="app.diagrams.net" modified="2020-11-03T21:00:32.599Z" agent="5.0 (Windows NT 10.0; Win64; x64) AppleWebKit/537.36 (KHTML, like Gecko) Chrome/86.0.4240.183 Safari/537.36" etag="zFCJ3h5k1Pd2cNWgtE4x" version="13.8.9" type="github">
  <diagram id="C5RBs43oDa-KdzZeNtuy" name="Page-1">
    <mxGraphModel dx="1017" dy="564" grid="1" gridSize="10" guides="1" tooltips="1" connect="1" arrows="1" fold="1" page="1" pageScale="1" pageWidth="827" pageHeight="1169" math="0" shadow="0">
      <root>
        <mxCell id="WIyWlLk6GJQsqaUBKTNV-0" />
        <mxCell id="WIyWlLk6GJQsqaUBKTNV-1" parent="WIyWlLk6GJQsqaUBKTNV-0" />
        <mxCell id="vo0Tel2uopuyfukO66LY-2" value="" style="edgeStyle=orthogonalEdgeStyle;rounded=0;orthogonalLoop=1;jettySize=auto;html=1;" edge="1" parent="WIyWlLk6GJQsqaUBKTNV-1" source="vo0Tel2uopuyfukO66LY-0" target="vo0Tel2uopuyfukO66LY-1">
          <mxGeometry relative="1" as="geometry" />
        </mxCell>
        <mxCell id="vo0Tel2uopuyfukO66LY-0" value="Start progarm" style="rounded=1;whiteSpace=wrap;html=1;" vertex="1" parent="WIyWlLk6GJQsqaUBKTNV-1">
          <mxGeometry x="354" width="120" height="60" as="geometry" />
        </mxCell>
        <mxCell id="vo0Tel2uopuyfukO66LY-12" value="" style="edgeStyle=orthogonalEdgeStyle;rounded=0;orthogonalLoop=1;jettySize=auto;html=1;" edge="1" parent="WIyWlLk6GJQsqaUBKTNV-1" source="vo0Tel2uopuyfukO66LY-1" target="vo0Tel2uopuyfukO66LY-11">
          <mxGeometry relative="1" as="geometry" />
        </mxCell>
        <mxCell id="vo0Tel2uopuyfukO66LY-1" value="Initialize&lt;br&gt;n = 1000&lt;br&gt;S is sum of n from 1 to 1000&lt;br&gt;S = 0" style="whiteSpace=wrap;html=1;rounded=1;" vertex="1" parent="WIyWlLk6GJQsqaUBKTNV-1">
          <mxGeometry x="356" y="99" width="116" height="70" as="geometry" />
        </mxCell>
        <mxCell id="vo0Tel2uopuyfukO66LY-14" value="" style="edgeStyle=orthogonalEdgeStyle;rounded=0;orthogonalLoop=1;jettySize=auto;html=1;" edge="1" parent="WIyWlLk6GJQsqaUBKTNV-1" source="vo0Tel2uopuyfukO66LY-11" target="vo0Tel2uopuyfukO66LY-13">
          <mxGeometry relative="1" as="geometry" />
        </mxCell>
        <mxCell id="vo0Tel2uopuyfukO66LY-11" value="S = (n*(n+1))/2" style="whiteSpace=wrap;html=1;rounded=1;" vertex="1" parent="WIyWlLk6GJQsqaUBKTNV-1">
          <mxGeometry x="354" y="210" width="120" height="60" as="geometry" />
        </mxCell>
        <mxCell id="vo0Tel2uopuyfukO66LY-16" value="" style="edgeStyle=orthogonalEdgeStyle;rounded=0;orthogonalLoop=1;jettySize=auto;html=1;" edge="1" parent="WIyWlLk6GJQsqaUBKTNV-1" source="vo0Tel2uopuyfukO66LY-13" target="vo0Tel2uopuyfukO66LY-15">
          <mxGeometry relative="1" as="geometry" />
        </mxCell>
        <mxCell id="vo0Tel2uopuyfukO66LY-13" value="Print out&lt;br&gt;S" style="whiteSpace=wrap;html=1;rounded=1;" vertex="1" parent="WIyWlLk6GJQsqaUBKTNV-1">
          <mxGeometry x="354" y="310" width="120" height="60" as="geometry" />
        </mxCell>
        <mxCell id="vo0Tel2uopuyfukO66LY-15" value="End" style="whiteSpace=wrap;html=1;rounded=1;" vertex="1" parent="WIyWlLk6GJQsqaUBKTNV-1">
          <mxGeometry x="354" y="410" width="120" height="60" as="geometry" />
        </mxCell>
      </root>
    </mxGraphModel>
  </diagram>
</mxfile>
